<svg width="200" height="200" viewBox="0 0 200 200" fill="none" xmlns="http://www.w3.org/2000/svg">
<rect x="3" y="3" width="194" height="194" rx="97" fill="#FF8E48"/>
<rect x="3" y="3" width="194" height="194" rx="97" stroke="#FF9F3D" stroke-width="6"/>
<path fill-rule="evenodd" clip-rule="evenodd" d="M77.8346 39.1567C68.7485 39.7766 61.9611 44.5553 58.5319 52.7473C56.939 56.5522 56.8575 57.6083 56.9048 73.7589C56.9458 87.8275 56.9219 88.5895 56.4066 89.627C55.6408 91.169 53.2138 95.6521 50.1669 101.153C45.8547 108.938 44.8727 110.944 44.4232 112.883C43.2739 117.842 44.5005 122.512 47.6781 125.279C49.3514 126.735 51.283 127.6 54.2472 128.22L56.7774 128.75L56.9309 139.182C57.0957 150.394 57.0571 150.086 58.7248 153.433C59.675 155.34 62.3176 158.031 64.0567 158.863C65.924 159.755 68.229 160.144 70.5244 159.952C72.1091 159.821 73.0093 159.517 75.4441 158.296C77.0834 157.474 79.4364 156.201 80.6734 155.466C82.7796 154.215 83.9683 153.554 89.4587 150.579C90.6572 149.929 92.017 149.173 92.4809 148.899C94.5281 147.687 99.0152 145.373 99.722 145.165C100.365 144.975 101.084 145.242 103.939 146.73C105.832 147.717 108.519 149.203 109.911 150.033C113.03 151.892 120.964 156.188 125.022 158.214C128.43 159.916 130.101 160.259 132.857 159.823C136.583 159.233 139.68 156.989 141.442 153.602C143.011 150.588 143.037 150.377 143.207 139.208L143.365 128.801L146.041 128.195C150.375 127.213 153.428 124.954 155.105 121.487C155.978 119.683 156.015 119.465 155.997 116.311C155.975 112.624 155.817 112.105 153.251 107.3C152.495 105.885 151.302 103.633 150.601 102.296C149.899 100.96 148.772 98.8672 148.095 97.6463C147.418 96.4255 146.537 94.8172 146.137 94.0724C145.738 93.3276 144.95 91.882 144.388 90.8599L143.365 89.0015L143.197 73.5622C143.018 57.1603 142.979 56.6723 141.537 52.7541C140.655 50.3556 138.417 47.059 136.156 44.8272C133.705 42.4067 130.678 40.8136 126.549 39.7697L123.686 39.0458L102.18 39.0043C90.3513 38.9817 79.396 39.0501 77.8346 39.1567ZM115.598 69.2824C117.239 69.9797 118.3 70.9535 119.149 72.5392L119.939 74.0154L119.926 81.2761C119.912 89.1939 119.84 89.6365 118.266 91.46C116.186 93.8686 112.17 94.6368 109.502 93.1363C108.044 92.3163 106.543 90.4419 106.129 88.9228C105.968 88.3347 105.837 84.9675 105.836 81.4042C105.835 76.1271 105.92 74.6956 106.303 73.5516C106.866 71.8719 109.002 69.5737 110.374 69.172C111.838 68.7437 114.46 68.7992 115.598 69.2824ZM90.3643 70.6988C91.1227 71.0896 92.0634 71.8364 92.4547 72.3582C93.9203 74.3124 94.0271 74.938 94.0271 81.57C94.0271 88.4345 93.922 88.9151 92.0136 90.7721C90.0573 92.676 86.6413 93.4337 84.3689 92.4682C83.0493 91.9075 81.4443 90.3916 80.7271 89.0286C80.1559 87.9427 80.1047 87.3987 80.0218 81.5229C79.9391 75.6634 79.9743 75.1056 80.4898 74.0891C81.1969 72.6959 82.9143 71.0022 84.1875 70.4429C85.7953 69.7367 88.7334 69.8585 90.3643 70.6988Z" fill="white"/>
</svg>
