<svg width="312" height="43" viewBox="0 0 312 43" fill="none" xmlns="http://www.w3.org/2000/svg">
<path fill-rule="evenodd" clip-rule="evenodd" d="M273.631 0.123641C273.003 0.389243 272.994 0.460661 272.994 5.18318C272.994 7.59218 272.94 9.8652 272.874 10.2345C272.582 11.877 271.451 13.4262 270.028 14.1328L269.248 14.5203H263.93H258.612L258.34 14.804C258.071 15.086 258.069 15.1119 258.034 19.0784L258 23.0692L258.745 23.9049C259.155 24.3645 260.081 25.3856 260.803 26.1739C261.524 26.9622 262.994 28.5888 264.068 29.7884C265.143 30.988 267.095 33.1471 268.408 34.5865C269.72 36.0258 271.273 37.7364 271.86 38.3879C272.446 39.0394 273.635 40.3437 274.501 41.2862L276.077 43H279.038C281.854 43 282.015 42.9873 282.313 42.7416L282.626 42.4834V38.2855V34.0875L280.634 31.7765C279.539 30.5054 277.679 28.351 276.502 26.9888C272.72 22.6136 272.602 22.4561 272.164 21.2287C271.332 18.8999 271.762 16.3971 273.268 14.7944C273.803 14.2253 274.434 13.8413 277.988 11.922C280.245 10.7035 282.212 9.56657 282.359 9.39556C282.625 9.08596 282.626 9.06639 282.626 4.84828V0.611846L282.334 0.305984L282.043 0L277.964 0.00785072C275.721 0.012213 273.771 0.0643135 273.631 0.123641ZM288.436 0.0899865C287.56 0.187328 287.566 0.155922 287.527 4.68513C287.501 7.79708 287.528 8.79032 287.646 9.02302C287.73 9.18916 288.119 9.68061 288.51 10.1153C290.164 11.955 295.72 18.3388 296.466 19.2565C297.795 20.89 298.325 22.2837 298.323 24.1353C298.32 25.8462 297.833 27.1332 296.762 28.2623C296.183 28.8717 295.066 29.5384 289.63 32.5186C288.74 33.0066 287.911 33.523 287.787 33.6665C287.577 33.9099 287.559 34.2087 287.527 38.153L287.493 42.3787L287.79 42.6894L288.086 43H292.423H296.761L297.007 42.6716C297.246 42.3533 297.254 42.2053 297.256 37.8419C297.258 32.9816 297.328 32.233 297.886 31.0808C298.38 30.0619 299.078 29.3441 300.08 28.8252L300.987 28.3551L306.135 28.3981L311.282 28.4412L311.641 28.0649L312 27.6888V23.823V19.9572L311.509 19.3576C311.239 19.0278 310.063 17.7139 308.896 16.4378C306.662 13.9954 306.19 13.4712 298.978 5.43969C296.493 2.67161 294.317 0.315207 294.143 0.203407C293.875 0.0304102 293.457 0.00311586 291.349 0.020939C289.985 0.0325303 288.675 0.0635633 288.436 0.0899865Z" fill="white"/>
<path d="M27.2809 26.582C27.2809 27.4844 27.1637 28.2988 26.9293 29.0254C26.7066 29.7402 26.4078 30.373 26.0328 30.9238C25.6578 31.4746 25.2184 31.9434 24.7145 32.3301C24.2105 32.7168 23.6891 33.0332 23.15 33.2793C22.6109 33.5254 22.0602 33.707 21.4977 33.8242C20.9469 33.9414 20.4254 34 19.9332 34H2.30235V29.4297H19.9332C20.8121 29.4297 21.4918 29.1719 21.9723 28.6562C22.4645 28.1406 22.7105 27.4492 22.7105 26.582C22.7105 26.1602 22.6461 25.7734 22.5172 25.4219C22.3883 25.0703 22.2008 24.7656 21.9547 24.5078C21.7203 24.25 21.4273 24.0508 21.0758 23.9102C20.7359 23.7695 20.3551 23.6992 19.9332 23.6992H9.42149C8.6832 23.6992 7.88633 23.5703 7.03086 23.3125C6.17539 23.043 5.37852 22.6152 4.64024 22.0293C3.91367 21.4434 3.3043 20.6758 2.81211 19.7266C2.33164 18.7773 2.09141 17.6172 2.09141 16.2461C2.09141 14.875 2.33164 13.7207 2.81211 12.7832C3.3043 11.834 3.91367 11.0664 4.64024 10.4805C5.37852 9.88281 6.17539 9.45508 7.03086 9.19727C7.88633 8.92773 8.6832 8.79297 9.42149 8.79297H24.9781V13.3633H9.42149C8.5543 13.3633 7.87461 13.627 7.38242 14.1543C6.90195 14.6816 6.66172 15.3789 6.66172 16.2461C6.66172 17.125 6.90195 17.8223 7.38242 18.3379C7.87461 18.8418 8.5543 19.0938 9.42149 19.0938H19.9332H19.9684C20.4605 19.1055 20.982 19.1758 21.5328 19.3047C22.0836 19.4219 22.6285 19.6094 23.1676 19.8672C23.7184 20.125 24.2398 20.4531 24.732 20.8516C25.2242 21.2383 25.6578 21.707 26.0328 22.2578C26.4195 22.8086 26.7242 23.4414 26.9469 24.1562C27.1695 24.8711 27.2809 25.6797 27.2809 26.582ZM62.0434 17.2305C62.0434 18.2734 61.9086 19.2051 61.6391 20.0254C61.3813 20.8457 61.0355 21.5723 60.602 22.2051C60.1684 22.8262 59.6586 23.3594 59.0727 23.8047C58.4984 24.25 57.9008 24.6191 57.2797 24.9121C56.6586 25.1934 56.0258 25.3984 55.3813 25.5273C54.7484 25.6562 54.1508 25.7207 53.5883 25.7207H51.7426V34H47.1371V25.7207H45.309C44.7465 25.7207 44.143 25.6562 43.4984 25.5273C42.8656 25.3984 42.2328 25.1934 41.6 24.9121C40.9789 24.6191 40.3813 24.25 39.807 23.8047C39.2328 23.3594 38.723 22.8262 38.2777 22.2051C37.8441 21.5723 37.4926 20.8457 37.223 20.0254C36.9652 19.1934 36.8363 18.2617 36.8363 17.2305V8.79297H41.4066V17.2305C41.4066 17.8281 41.5004 18.3672 41.6879 18.8477C41.8754 19.3164 42.1391 19.7207 42.4789 20.0605C42.8188 20.4004 43.2289 20.6641 43.7094 20.8516C44.2016 21.0273 44.7465 21.1152 45.3441 21.1152H53.5883C54.0219 21.0449 54.4672 20.957 54.9242 20.8516C55.3813 20.7344 55.7973 20.541 56.1723 20.2715C56.5473 20.002 56.8578 19.627 57.1039 19.1465C57.35 18.666 57.473 18.0273 57.473 17.2305V8.79297H62.0434V17.2305ZM98.5461 32.0488C98.5461 32.377 98.4816 32.6816 98.3527 32.9629C98.2355 33.2441 98.0715 33.4902 97.8605 33.7012C97.6613 33.9004 97.4211 34.0586 97.1398 34.1758C96.8586 34.293 96.5598 34.3516 96.2434 34.3516C95.9621 34.3516 95.675 34.2988 95.382 34.1934C95.1008 34.0879 94.8488 33.918 94.6262 33.6836L77.927 16.2461V34H73.3566V10.7441C73.3566 10.2754 73.4855 9.85352 73.7434 9.47852C74.0129 9.0918 74.3527 8.80469 74.7629 8.61719C75.1965 8.44141 75.6418 8.40039 76.0988 8.49414C76.5559 8.57617 76.9484 8.78711 77.2766 9.12695L93.9758 26.5469V8.79297H98.5461V32.0488ZM133.854 13.3633H123.781V34H119.211V13.3633H109.121V8.79297H133.854V13.3633ZM149.034 19.0938H165.083V8.79297H169.653V34H165.083V23.6992H149.034V34H144.464V8.79297H149.034V19.0938ZM207.404 17.2656C207.404 18.3086 207.275 19.2402 207.017 20.0605C206.759 20.8809 206.408 21.6074 205.962 22.2402C205.529 22.8613 205.025 23.3945 204.451 23.8398C203.877 24.2852 203.273 24.6543 202.64 24.9473C202.019 25.2285 201.386 25.4336 200.742 25.5625C200.109 25.6914 199.511 25.7559 198.949 25.7559L208.494 34H201.427L191.9 25.7559H188.613V21.1855H198.949C199.523 21.1387 200.045 21.0215 200.513 20.834C200.994 20.6348 201.404 20.3711 201.744 20.043C202.095 19.7148 202.365 19.3223 202.552 18.8652C202.74 18.3965 202.834 17.8633 202.834 17.2656V14.3828C202.834 14.125 202.798 13.9316 202.728 13.8027C202.67 13.6621 202.587 13.5625 202.482 13.5039C202.388 13.4336 202.283 13.3926 202.166 13.3809C202.06 13.3691 201.961 13.3633 201.867 13.3633H186.785V34H182.214V11.0957C182.214 10.7793 182.273 10.4805 182.39 10.1992C182.507 9.91797 182.666 9.67188 182.865 9.46094C183.076 9.25 183.322 9.08594 183.603 8.96875C183.884 8.85156 184.189 8.79297 184.517 8.79297H201.867C202.886 8.79297 203.748 8.98047 204.451 9.35547C205.154 9.71875 205.722 10.1816 206.156 10.7441C206.601 11.2949 206.918 11.8926 207.105 12.5371C207.304 13.1816 207.404 13.7852 207.404 14.3477V17.2656ZM243.924 34H239.354V27.8125H223.288V34H218.717V21.3965C218.717 19.5566 219.034 17.8633 219.666 16.3164C220.299 14.7695 221.178 13.4395 222.303 12.3262C223.428 11.2129 224.758 10.3457 226.293 9.72461C227.829 9.10352 229.504 8.79297 231.321 8.79297H241.621C241.938 8.79297 242.237 8.85156 242.518 8.96875C242.799 9.08594 243.045 9.25 243.256 9.46094C243.467 9.67188 243.631 9.91797 243.748 10.1992C243.866 10.4805 243.924 10.7793 243.924 11.0957V34ZM223.288 23.2422H239.354V13.3633H231.321C231.18 13.3633 230.881 13.3867 230.424 13.4336C229.979 13.4688 229.457 13.5684 228.86 13.7324C228.274 13.8965 227.653 14.1484 226.996 14.4883C226.34 14.8281 225.737 15.2969 225.186 15.8945C224.635 16.4922 224.178 17.2422 223.815 18.1445C223.463 19.0352 223.288 20.1191 223.288 21.3965V23.2422Z" fill="white"/>
</svg>
