<svg width="580" height="115" viewBox="0 0 580 115" fill="none" xmlns="http://www.w3.org/2000/svg">
<path fill-rule="evenodd" clip-rule="evenodd" d="M75.7564 0.148116C84.5625 0.733975 91.1406 5.2506 94.4642 12.9932C96.008 16.5895 96.0869 17.5877 96.0412 32.8524C96.0014 46.1494 96.0245 46.8695 96.524 47.8502C97.2662 49.3076 99.6184 53.5448 102.571 58.7437C106.751 66.1021 107.702 67.9975 108.138 69.8305C109.252 74.5173 108.063 78.9318 104.983 81.5463C103.362 82.9228 101.49 83.7406 98.6168 84.3267L96.1646 84.8269L96.0158 94.6873C95.8562 105.284 95.8935 104.993 94.2772 108.157C93.3563 109.959 90.7951 112.503 89.1097 113.288C87.2999 114.132 85.066 114.499 82.8413 114.318C81.3054 114.194 80.433 113.907 78.0732 112.753C76.4845 111.976 74.2039 110.772 73.0051 110.078C70.9638 108.895 69.8118 108.271 64.4905 105.459C63.329 104.845 62.0111 104.131 61.5615 103.871C59.5774 102.726 55.2286 100.539 54.5436 100.342C53.9207 100.162 53.2235 100.415 50.4566 101.821C48.6221 102.754 46.0173 104.158 44.6686 104.943C41.6456 106.7 33.9564 110.76 30.023 112.675C26.7199 114.284 25.101 114.608 22.4302 114.196C18.8187 113.638 15.8172 111.518 14.1091 108.316C12.5888 105.467 12.564 105.268 12.3989 94.7116L12.2452 84.8755L9.65188 84.3026C5.45155 83.3747 2.49256 81.2393 0.867303 77.963C0.0215691 76.2576 -0.0149405 76.0514 0.00304227 73.0705C0.0240221 69.5856 0.177151 69.0952 2.66476 64.5537C3.39742 63.216 4.55295 61.088 5.23302 59.8247C5.91283 58.5613 7.00569 56.5835 7.66178 55.4296C8.31761 54.2757 9.17152 52.7557 9.55869 52.0517C9.94614 51.3478 10.709 49.9815 11.2542 49.0154L12.2452 47.2589L12.4087 32.6665C12.5822 17.1642 12.6201 16.703 14.0171 12.9997C14.8723 10.7328 17.0411 7.61701 19.232 5.50759C21.6082 3.21982 24.5416 1.71409 28.5433 0.727484L31.3178 0.0432668L52.1614 0.00407819C63.6254 -0.01727 74.2431 0.0473205 75.7564 0.148116ZM39.1572 28.6214C37.5668 29.2805 36.5377 30.2009 35.7151 31.6996L34.9495 33.0948L34.962 39.9573C34.9757 47.4408 35.0457 47.8591 36.5715 49.5827C38.5869 51.8591 42.4796 52.5852 45.0651 51.167C46.4781 50.392 47.9325 48.6204 48.3344 47.1846C48.4902 46.6288 48.6169 43.4463 48.6177 40.0784C48.6191 35.0907 48.5365 33.7377 48.1652 32.6565C47.6197 31.0689 45.5495 28.8968 44.2199 28.5171C42.8014 28.1123 40.2593 28.1647 39.1572 28.6214ZM63.6129 29.9602C62.8778 30.3296 61.9661 31.0354 61.5868 31.5286C60.1665 33.3756 60.0629 33.9669 60.0629 40.2351C60.0629 46.7231 60.1648 47.1773 62.0143 48.9325C63.9104 50.7319 67.2212 51.4481 69.4235 50.5355C70.7025 50.0056 72.258 48.5728 72.953 47.2846C73.5067 46.2583 73.5563 45.744 73.6366 40.1905C73.7167 34.6524 73.6827 34.1252 73.183 33.1645C72.4977 31.8477 70.8332 30.2469 69.5992 29.7183C68.041 29.0508 65.1935 29.166 63.6129 29.9602Z" fill="#FA932B"/>
<path d="M138 111.945V3.4785H179.208C200.528 3.4785 213.415 13.7559 213.415 32.2552C213.574 43.1651 207.688 51.0707 197.505 55.4979C210.71 60.0832 218.188 68.7795 218.188 81.1123C218.347 100.877 204.824 111.945 182.39 111.945H138ZM154.388 98.3467H176.662C194.482 98.3467 202.278 93.2871 202.278 80.638C202.278 67.9889 194.482 62.9293 176.662 62.9293H154.388V98.3467ZM154.388 49.9639H173.48C190.186 49.9639 197.505 44.9043 197.505 32.8877C197.505 21.3454 190.186 16.7601 173.48 16.7601H154.388V49.9639Z" fill="white"/>
<path d="M263.513 114C239.011 114 223.419 97.3981 223.419 71.1512C223.419 44.9043 239.011 28.3024 263.513 28.3024C288.015 28.3024 303.289 44.9043 303.289 71.1512C303.448 97.3981 288.174 114 263.513 114ZM263.354 101.035C279.105 101.035 287.379 89.6505 287.379 70.835C287.379 52.3356 279.105 41.1096 263.354 41.1096C247.762 41.1096 239.488 52.3356 239.488 70.835C239.488 89.6505 247.762 101.035 263.354 101.035Z" fill="white"/>
<path d="M349.141 114C324.639 114 309.046 97.3981 309.046 71.1512C309.046 44.9043 324.639 28.3024 349.141 28.3024C373.643 28.3024 388.917 44.9043 388.917 71.1512C389.076 97.3981 373.802 114 349.141 114ZM348.981 101.035C364.733 101.035 373.006 89.6505 373.006 70.835C373.006 52.3356 364.733 41.1096 348.981 41.1096C333.389 41.1096 325.116 52.3356 325.116 70.835C325.116 89.6505 333.389 101.035 348.981 101.035Z" fill="white"/>
<path d="M397.22 111.945V3.4785H412.971V65.1429L449.088 30.3578H469.771L434.132 63.7198L470.089 111.945H451.633L423.472 73.681L412.971 83.4841V111.945H397.22Z" fill="white"/>
<path d="M491.664 30.8322V111.945H476.231V30.8322H491.664ZM484.027 19.448C489.755 19.448 493.732 15.4951 493.732 9.80305C493.732 3.95285 489.755 0 484.027 0C478.14 0 474.003 3.95285 474.003 9.80305C474.003 15.4951 478.14 19.448 484.027 19.448Z" fill="white"/>
<path d="M543.406 114C518.109 114 502.835 97.3981 502.835 71.1512C502.835 44.9043 518.268 28.3024 542.611 28.3024C566.476 28.3024 579.841 43.7975 580 71.3093V75.7365H518.586C520.018 92.6546 527.973 100.718 543.565 100.718C554.702 100.718 561.385 96.4494 564.567 86.8044L579.682 90.2829C573.954 106.885 562.499 114 543.406 114ZM518.745 64.1942H564.09C562.817 49.3315 556.134 40.9515 542.133 40.9515C527.655 40.9515 520.177 49.4896 518.745 64.1942Z" fill="white"/>
</svg>
